<svg width="617" height="213" viewBox="0 0 617 213" fill="none" xmlns="http://www.w3.org/2000/svg">
<path d="M190 158.4H149.176V210H119.402V158.4H0V137.4L109.887 0H143.037L37.7544 132.6H120.323V87H149.176V132.6H190V158.4Z" fill="black"/>
<path d="M617 161.4H576.176V213H546.402V161.4H427V140.4L536.887 3H570.037L464.754 135.6H547.323V90H576.176V135.6H617V161.4Z" fill="black"/>
<path fill-rule="evenodd" clip-rule="evenodd" d="M283.176 22.284C305.429 18.2826 330.321 23.6828 348.854 37.7953C351.621 39.9023 354.208 42.1579 356.62 44.542C359.292 46.3059 361.685 48.277 363.828 50.3962C373.824 59.2736 381.987 70.2557 385.659 82.7176C389.687 96.3859 389.675 112.495 387.262 127.648C384.814 143.024 379.625 159.131 371.731 173.13C363.965 186.905 352.571 200.376 336.803 207.661C319.961 215.442 300.91 214.859 282.02 204.98C269.059 198.202 260.078 187.482 253.715 177.559C247.338 167.612 242.596 156.842 239.022 148.643C228.875 125.357 222.721 96.7908 230.545 68.4965C238.114 41.1292 260.266 26.4038 283.176 22.284Z" fill="#2454FF"/>
<path fill-rule="evenodd" clip-rule="evenodd" d="M272.676 77.9627C273.594 76.1519 275.826 75.418 277.663 76.3234C278.721 76.8453 279.272 77.6735 279.523 78.1286C279.8 78.6315 279.956 79.1271 280.05 79.5065C280.24 80.2742 280.301 81.0864 280.294 81.7998C280.286 82.5229 280.206 83.331 280.012 84.1027C279.86 84.7042 279.476 85.9871 278.382 86.9462C277.856 87.4073 276.8 88.0417 275.375 87.8449C274.078 87.6657 273.314 86.9021 273.016 86.5498C272.491 85.93 272.303 85.2787 272.268 85.1581C272.266 85.1532 272.265 85.1491 272.264 85.146C272.147 84.7515 272.096 84.3633 272.074 84.1792C272.017 83.7169 271.981 83.1515 271.956 82.6644C271.906 81.6672 271.887 80.5986 271.887 80.384C271.887 79.6379 272.113 78.944 272.501 78.365C272.55 78.2293 272.609 78.095 272.676 77.9627ZM272.792 82.353C272.792 82.3529 272.792 82.3511 272.793 82.3475C272.792 82.3512 272.792 82.353 272.792 82.353ZM279.459 83.3335C279.461 83.348 279.462 83.356 279.462 83.3563C279.462 83.3567 279.461 83.3494 279.459 83.3335Z" fill="white"/>
<path fill-rule="evenodd" clip-rule="evenodd" d="M333.16 74.0497C334.299 72.3652 336.607 71.91 338.315 73.033C339.413 73.755 340.371 74.7091 340.954 76.0483C341.49 77.2786 341.556 78.5043 341.556 79.4278C341.556 79.7565 341.529 81.3762 341.19 82.8046C341.099 83.1856 340.963 83.6565 340.749 84.1333C340.555 84.5643 340.172 85.29 339.442 85.9017C338.577 86.626 337.315 87.0951 335.899 86.8236C334.705 86.5945 333.884 85.9242 333.426 85.4731C331.775 83.8442 331.409 81.8099 331.316 80.4589C331.268 79.7571 331.284 79.0855 331.303 78.5563C331.31 78.3712 331.317 78.2105 331.323 78.0663C331.337 77.7432 331.347 77.5029 331.347 77.2559C331.347 75.9429 332.047 74.7911 333.099 74.1437C333.119 74.1122 333.139 74.0809 333.16 74.0497ZM338.81 80.4568C338.811 80.4604 338.812 80.4623 338.812 80.4624C338.812 80.4625 338.811 80.4607 338.81 80.4568Z" fill="white"/>
<path fill-rule="evenodd" clip-rule="evenodd" d="M352.507 97.4365C354.56 97.4365 356.224 99.0777 356.224 101.102C356.224 102.264 356.25 103.498 356.278 104.779C356.361 108.645 356.453 112.937 355.854 116.967C354.786 124.155 351.861 130.996 348.666 137.028C345.3 143.38 341.426 150.271 335.997 155.904C325.215 167.09 309.657 169.944 295.398 169.179C287.73 168.768 282.846 163.588 279.075 159.587C278.8 159.296 278.531 159.01 278.268 158.734C277.948 158.398 277.641 158.017 277.415 157.735C277.352 157.657 277.293 157.583 277.236 157.511C277.057 157.286 276.901 157.091 276.734 156.892C276.52 156.637 276.359 156.465 276.24 156.353C276.22 156.335 276.204 156.32 276.191 156.309C274.449 155.366 273.76 153.225 274.657 151.457C275.575 149.646 277.808 148.912 279.644 149.817C280.973 150.473 281.965 151.627 282.459 152.215C282.693 152.494 282.927 152.788 283.116 153.024C283.163 153.084 283.208 153.14 283.249 153.192C283.487 153.489 283.613 153.637 283.685 153.713C283.765 153.797 283.845 153.88 283.924 153.963C288.299 158.557 291.21 161.612 295.802 161.859C309.02 162.568 321.964 159.822 330.609 150.853C335.25 146.037 338.717 139.974 342.077 133.633C345.103 127.921 347.604 121.92 348.498 115.904C349 112.532 348.928 109.15 348.85 105.469C348.82 104.063 348.789 102.612 348.789 101.102C348.789 99.0777 350.454 97.4365 352.507 97.4365ZM276.156 156.279C276.156 156.279 276.157 156.28 276.16 156.282C276.157 156.28 276.156 156.279 276.156 156.279Z" fill="white"/>
</svg>
