<svg width="10" height="10" viewBox="0 0 10 10" fill="none" xmlns="http://www.w3.org/2000/svg">
<path fill-rule="evenodd" clip-rule="evenodd" d="M5.02708 0.35988C5.76201 0.468782 6.43767 0.836411 7.0389 1.30457C7.94583 2.01079 8.64082 3.13937 8.91046 4.31581C9.17369 5.4643 9.05457 6.79237 8.15278 7.82733C7.87864 8.29173 7.47081 8.71278 6.86702 8.94834C6.03783 9.27185 4.73579 9.43245 3.57231 9.25059C2.44375 9.07419 1.02877 8.48499 0.749858 6.94485C0.738802 6.8838 0.728626 6.82255 0.719285 6.76113C0.557234 6.52379 0.415845 6.2696 0.293745 6.00353C0.169388 5.73255 0.100803 5.43262 0.0717975 5.12539C-0.0104991 4.81095 -0.0296877 4.469 0.054653 4.11705C0.0764939 4.02591 0.104441 3.93754 0.138166 3.852C0.150476 3.78183 0.163809 3.71306 0.177924 3.64599C0.33418 2.90355 0.642413 2.10896 1.05951 1.58903C1.28435 1.30877 1.58619 0.947905 1.98047 0.692364C2.41795 0.408827 2.95018 0.264947 3.57204 0.380414C3.60101 0.385793 3.62958 0.391681 3.65777 0.398035C3.75861 0.369264 3.86266 0.345901 3.96993 0.328575C4.31727 0.272468 4.671 0.284086 5.02708 0.35988Z" fill="#2454FF"/>
<path fill-rule="evenodd" clip-rule="evenodd" d="M3.04464 4.01687C3.11022 3.98375 3.18997 4.0106 3.22276 4.07686C3.22831 4.08808 3.23633 4.0991 3.25393 4.11688C3.27923 4.14243 3.29124 4.17156 3.29732 4.19039C3.30383 4.21057 3.30714 4.23053 3.30902 4.24725C3.31277 4.2806 3.31241 4.31641 3.31112 4.3468C3.3098 4.378 3.30721 4.40903 3.30518 4.43325L3.30504 4.435C3.30405 4.44679 3.30324 4.45651 3.30264 4.4648C3.30234 4.46906 3.30213 4.47245 3.302 4.47513C3.30194 4.47644 3.3019 4.47745 3.30188 4.4782C3.30185 4.47896 3.30185 4.47929 3.30185 4.47926C3.30185 4.48074 3.30187 4.48244 3.30188 4.48433C3.30203 4.5076 3.30238 4.56055 3.28452 4.60742C3.27305 4.6375 3.2521 4.67186 3.21496 4.69741C3.1781 4.72277 3.13729 4.73118 3.1004 4.73118C3.05599 4.73118 3.01281 4.719 2.97529 4.6929C2.93894 4.6676 2.91517 4.63434 2.89969 4.60304C2.87049 4.54396 2.86294 4.47573 2.86096 4.42266C2.85885 4.36649 2.86263 4.30928 2.86636 4.26388C2.86773 4.24714 2.86898 4.233 2.87003 4.22101C2.87225 4.19586 2.87363 4.18014 2.87363 4.16971C2.87363 4.09564 2.93307 4.03559 3.0064 4.03559C3.00978 4.03559 3.01314 4.03572 3.01646 4.03597C3.02482 4.02857 3.03424 4.02213 3.04464 4.01687Z" fill="white"/>
<path fill-rule="evenodd" clip-rule="evenodd" d="M5.57017 3.71146C5.56734 3.71128 5.56449 3.71118 5.56162 3.71118C5.48449 3.71118 5.42196 3.77985 5.42196 3.86456C5.42196 3.90329 5.42148 3.94379 5.42098 3.98544C5.41963 4.0992 5.41818 4.2215 5.42614 4.33951C5.42643 4.34373 5.42672 4.34887 5.42706 4.35476C5.42885 4.3858 5.43183 4.43768 5.44072 4.48579C5.45055 4.53901 5.47437 4.6309 5.54831 4.68955C5.57418 4.71007 5.6094 4.72883 5.65225 4.73089C5.69711 4.73304 5.73612 4.71616 5.76541 4.6916C5.81694 4.6484 5.83592 4.58552 5.84293 4.5481C5.86895 4.40928 5.89887 4.19104 5.82521 4.00902C5.82324 4.00416 5.82093 3.99741 5.81681 3.98536C5.8148 3.97951 5.81237 3.97241 5.80935 3.96367C5.80153 3.9411 5.79108 3.91185 5.77847 3.88302C5.76651 3.85567 5.74894 3.82004 5.72444 3.78916C5.70206 3.76096 5.65339 3.71118 5.57873 3.71118C5.57586 3.71118 5.57301 3.71128 5.57017 3.71146ZM5.72183 4.45181C5.72187 4.45188 5.72189 4.45192 5.72189 4.45192C5.72189 4.45193 5.72187 4.45189 5.72183 4.45181Z" fill="white"/>
<path fill-rule="evenodd" clip-rule="evenodd" d="M5.66434 5.33523C5.72698 5.37044 5.73968 5.43705 5.6927 5.484C5.67858 5.49811 5.66425 5.51258 5.64965 5.52732C5.42853 5.75056 5.14684 6.03496 4.64485 6.04234C4.35369 6.04662 4.06059 5.93474 3.85524 5.82318C3.84887 5.81971 3.84141 5.8158 3.8332 5.81149C3.79826 5.79313 3.7496 5.76757 3.71243 5.73917C3.65882 5.69821 3.61328 5.64143 3.61328 5.56349C3.61328 5.5048 3.67676 5.45722 3.75506 5.45722C3.83336 5.45722 3.89683 5.5048 3.89683 5.56349C3.89683 5.57204 3.89884 5.5781 3.91486 5.59034C3.92449 5.59771 3.93769 5.60591 3.95659 5.61634C3.96591 5.62149 3.97576 5.6267 3.98683 5.63255C3.98791 5.63312 3.98901 5.6337 3.99012 5.63428C3.99999 5.63949 4.01085 5.64522 4.02165 5.65109C4.20733 5.75197 4.43888 5.83278 4.63929 5.82984C4.99818 5.82456 5.1986 5.62396 5.44244 5.37991C5.4502 5.37214 5.458 5.36433 5.46586 5.35648C5.51284 5.30953 5.6017 5.30001 5.66434 5.33523Z" fill="white"/>
</svg>
