<svg width="357" height="88" viewBox="0 0 357 88" fill="none" xmlns="http://www.w3.org/2000/svg">
<path d="M170 71H165.944V5.37632H4.05601V71H0V0H170V71Z" fill="#262525"/>
<path d="M37.3164 72.7031C30.2852 72.7031 24.4844 70.7227 19.9141 66.7617C14.4766 62.0508 11.7578 55.1719 11.7578 46.125C11.7578 37.1719 14.875 30.4219 21.1094 25.875C25.8672 22.4062 31.3984 20.6719 37.7031 20.6719C43.8203 20.6719 48.6602 20.9531 52.2227 21.5156L54.2617 21.832V39.9727H49.4453V26.0156C45.9297 25.6641 42.0156 25.4883 37.7031 25.4883C33.6484 25.4883 29.8516 26.4141 26.3125 28.2656C19.8203 31.7109 16.5742 37.6641 16.5742 46.125C16.5742 54.6562 19.2461 60.7383 24.5898 64.3711C28.0586 66.7148 32.3008 67.8867 37.3164 67.8867C40.0586 67.8867 42.7656 67.3594 45.4375 66.3047C48.4609 65.1328 50.7109 63.5039 52.1875 61.418L53.5586 59.4492L57.4961 62.2266L56.125 64.1953C54.1797 66.9375 51.3203 69.0938 47.5469 70.6641C44.2188 72.0234 40.8086 72.7031 37.3164 72.7031Z" fill="#262525"/>
<path d="M75.0391 36.0703V67.043H80.9805V72H63.0156V67.043H69.9766V40.9922H63.0156V36.0703H75.0391ZM69.5898 21.5859H74.5469V28.4766H69.5898V21.5859Z" fill="#262525"/>
<path d="M94.2695 57.2344C94.2695 61.4062 95.2305 64.2891 97.1523 65.8828C98.5586 67.0547 100.75 67.6406 103.727 67.6406H108.402V72.3516H103.727C94.2812 72.3516 89.5586 67.3125 89.5586 57.2344V40.6055H84.4609V35.8945H89.5586V30.7266H85.3047V26.0156H94.2695V35.8945H106.223V40.6055H94.2695V57.2344Z" fill="#262525"/>
<path d="M139.199 36.0352H154.457V40.957H150.52L135.859 72.7031C133.305 79.8281 129.824 84.2578 125.418 85.9922C123.613 86.7188 121.633 87.082 119.477 87.082C116.453 87.082 113.512 86.3906 110.652 85.0078L112.797 80.5781C115.07 81.7031 117.262 82.2656 119.371 82.2656C120.824 82.2656 122.242 81.9844 123.625 81.4219C125.219 80.7891 126.812 79.2188 128.406 76.7109C129.555 74.9297 130.469 73.1016 131.148 71.2266L117.051 40.957H111.988V36.0352H128.406V40.957H122.5L133.82 65.3555L145.105 40.957H139.199V36.0352Z" fill="#262525"/>
<path d="M201.449 23.5156H202.398C204.625 23.5156 206.043 23.668 206.652 23.9727C207.309 24.207 208.047 24.6758 208.867 25.3789C209.359 25.8477 209.664 26.2227 209.781 26.5039C209.852 26.7148 209.887 26.9727 209.887 27.2773C209.887 27.7461 209.699 28.25 209.324 28.7891C208.527 29.0469 207.977 29.1758 207.672 29.1758C207.086 29.1992 206.488 29.293 205.879 29.457L198.742 31.4258C197.57 31.6602 196.551 31.7773 195.684 31.7773L196 32.0586C195.414 32.1523 194.137 32.2812 192.168 32.4453C192.145 32.4688 191.77 32.5273 191.043 32.6211C190.668 33.6055 190.258 34.8242 189.812 36.2773H189.848C191.324 35.9961 192.695 35.7734 193.961 35.6094C196.07 35.375 198.004 35.1758 199.762 35.0117C200.348 35.082 200.734 35.1406 200.922 35.1875C201.109 35.2578 201.203 35.3633 201.203 35.5039C201.93 35.6445 202.492 35.8086 202.891 35.9961C203.055 36.043 203.172 36.1836 203.242 36.418L203.383 37.332C203.734 38.1758 203.91 38.8672 203.91 39.4062V39.8281C203.629 40.0625 202.844 40.4492 201.555 40.9883C200.266 41.4805 199.375 41.7266 198.883 41.7266C194.641 42.3594 191.031 43.0977 188.055 43.9414C186.93 44.2695 186.086 44.5391 185.523 44.75C185.828 44.9609 185.98 45.0781 185.98 45.1016V45.1367C185.184 45.7461 184.773 46.1445 184.75 46.332L184.223 47.3516C183.801 48.1484 183.555 48.8164 183.484 49.3555C183.438 49.5195 183.402 49.6016 183.379 49.6016V49.6719C183.309 50.0938 183.344 50.3867 183.484 50.5508C183.484 50.5508 183.473 50.6562 183.449 50.8672C183.285 50.8672 183.18 50.9492 183.133 51.1133C182.781 52.5664 182.605 53.6094 182.605 54.2422C182.441 55.4844 182.359 56.2695 182.359 56.5977C182.359 57.418 182.535 58.0156 182.887 58.3906C183.027 58.625 183.262 58.8945 183.59 59.1992C183.332 58.2852 183.203 57.6172 183.203 57.1953C183.203 57.0781 183.215 56.668 183.238 55.9648C183.238 55.8477 183.18 55.6016 183.062 55.2266V55.1562C183.062 55.0859 183.191 54.8398 183.449 54.418C183.637 53.9727 183.73 53.5391 183.73 53.1172C183.73 53.0703 183.695 52.6953 183.625 51.9922V51.8164C183.461 50.6211 183.836 49.168 184.75 47.457C184.914 47.1523 185.254 46.7188 185.77 46.1562C185.84 46.0156 185.91 45.8164 185.98 45.5586C186.051 45.4648 186.145 45.418 186.262 45.418H186.332C186.73 45.4648 186.93 45.6523 186.93 45.9805C186.93 46.1211 186.695 46.707 186.227 47.7383C185.641 49.0273 185.23 49.9414 184.996 50.4805C184.457 52.1445 184.188 53.6445 184.188 54.9805C184.188 56.457 184.469 58.0273 185.031 59.6914C186.039 59.6445 188.547 58.7422 192.555 56.9844C196.023 55.4375 198.145 54.3594 198.918 53.75C200.559 52.7891 201.906 52.3086 202.961 52.3086C203.641 52.3086 203.98 52.5195 203.98 52.9414L203.84 54.0664V54.1016C203.84 54.2188 203.875 54.3594 203.945 54.5234C203.242 54.8984 202.574 55.3203 201.941 55.7891C201.684 56 201.496 56.1875 201.379 56.3516C201.941 56.2344 202.41 56.0117 202.785 55.6836C203.254 55.2852 203.582 55.0625 203.77 55.0156C203.77 55.0391 203.758 55.1211 203.734 55.2617L203.91 56.2109C203.91 56.5859 203.383 57.2305 202.328 58.1445C200.969 59.1992 199.469 60.1133 197.828 60.8867C196.586 61.5195 195.297 62.0938 193.961 62.6094V62.3281C193.68 62.4922 193.211 62.668 192.555 62.8555C191.945 62.9727 191.383 63.0312 190.867 63.0312C190.633 63.0547 190.129 63.2188 189.355 63.5234C189.121 63.7109 188.758 63.875 188.266 64.0156C187.984 64.0859 187.281 64.2148 186.156 64.4023C185.359 64.5664 184.539 64.7656 183.695 65H183.59C182.535 65 181.668 64.7188 180.988 64.1562C178.715 62.4453 177.578 59.75 177.578 56.0703C177.578 53.7266 178.094 50.6797 179.125 46.9297C180.812 40.7422 182.031 36.6172 182.781 34.5547C183.578 32.2109 184.129 30.4297 184.434 29.2109V29.1758L184.398 28.7188C184.398 27.875 184.668 27.0898 185.207 26.3633C185.371 26.1055 185.887 25.8242 186.754 25.5195C187.668 25.1445 189.168 24.7695 191.254 24.3945C194.84 23.8086 198.238 23.5156 201.449 23.5156ZM191.324 26.2578C191.324 26.4453 191.547 26.5391 191.992 26.5391C193.938 26.375 195.766 26.1992 197.477 26.0117C197.641 26.0117 197.746 26.0117 197.793 26.0117C198.121 26.0352 198.344 26.0469 198.461 26.0469C198.531 26.0234 198.566 25.9883 198.566 25.9414C198.566 25.7305 198.379 25.5898 198.004 25.5195C197.91 25.5195 197.863 25.5078 197.863 25.4844C197.84 25.4844 197.816 25.4961 197.793 25.5195C197.652 25.5195 197.488 25.5078 197.301 25.4844C195.355 25.4844 193.457 25.6602 191.605 26.0117C191.418 26.082 191.324 26.1641 191.324 26.2578ZM186.227 27.0312V27.0664C186.227 27.1836 186.344 27.2891 186.578 27.3828C186.625 27.4297 186.684 27.4531 186.754 27.4531C188.137 27.2188 189.285 26.9609 190.199 26.6797C190.223 26.6094 190.234 26.5625 190.234 26.5391C190.164 26.375 189.871 26.293 189.355 26.293C189.168 26.293 188.828 26.3633 188.336 26.5039V26.4688C188.523 26.3516 188.617 26.2812 188.617 26.2578C188.594 26.2109 188.547 26.1875 188.477 26.1875H188.336C187.656 26.1875 186.988 26.375 186.332 26.75C186.262 26.8438 186.227 26.9375 186.227 27.0312ZM193.504 36.3828C193.504 36.4297 193.562 36.4531 193.68 36.4531C193.75 36.4531 193.785 36.418 193.785 36.3477V36.2773C193.762 36.2305 193.715 36.207 193.645 36.207C193.551 36.207 193.504 36.2656 193.504 36.3828ZM192.59 36.5234C192.59 36.5703 192.625 36.6172 192.695 36.6641H192.766C192.883 36.6406 192.941 36.5938 192.941 36.5234C192.918 36.4297 192.871 36.3828 192.801 36.3828H192.73C192.637 36.3828 192.59 36.4297 192.59 36.5234ZM191.535 36.7344C191.559 36.8281 191.582 36.875 191.605 36.875H191.746C191.84 36.875 191.898 36.793 191.922 36.6289C191.898 36.5586 191.852 36.5234 191.781 36.5234H191.746C191.629 36.5234 191.559 36.5938 191.535 36.7344ZM189.391 37.5781C189.391 37.625 189.461 37.6719 189.602 37.7188V37.7539C189.93 37.707 190.246 37.5781 190.551 37.3672C190.738 37.2031 190.832 37.0508 190.832 36.9102C190.785 36.793 190.715 36.7344 190.621 36.7344H190.586C190.305 36.7578 189.93 36.9805 189.461 37.4023C189.414 37.4727 189.391 37.5312 189.391 37.5781ZM187.879 44.3984C187.949 44.3984 188.02 44.4336 188.09 44.5039C188.09 44.8789 187.82 45.1367 187.281 45.2773H187.176C187.012 45.2539 186.93 45.1836 186.93 45.0664V45.0312C186.93 44.7734 187.211 44.5742 187.773 44.4336L187.879 44.3984ZM200.465 56.8789C200.77 56.8086 200.992 56.7031 201.133 56.5625L201.238 56.4219H201.203C200.945 56.4219 200.699 56.5742 200.465 56.8789ZM198.391 57.7578L198.496 57.793H198.672C199.188 57.793 199.609 57.5469 199.938 57.0547C199.867 57.0547 199.809 57.043 199.762 57.0195C199.199 57.0195 198.742 57.2656 198.391 57.7578ZM197.969 58.0391C198.086 58.0391 198.18 57.9688 198.25 57.8281H198.215C198.121 57.8281 198.039 57.8984 197.969 58.0391Z" fill="#262525"/>
<path d="M213.016 19.8945H213.086C213.578 19.8945 214.48 20.1992 215.793 20.8086C215.98 20.9023 216.273 21.0195 216.672 21.1602V21.1953C216.625 21.7578 216.602 22.332 216.602 22.918C216.602 23.6211 216.602 24.1953 216.602 24.6406V28.6836C216.602 30.0664 216.531 31.1797 216.391 32.0234C216.297 32.5391 216.25 33.0898 216.25 33.6758V33.7461C216.25 34.9414 216.473 38.1289 216.918 43.3086C216.918 44.6914 217.27 46.2031 217.973 47.8438H218.008C218.008 47.7734 218.008 47.668 218.008 47.5273C218.008 47.3867 217.902 46.543 217.691 44.9961C217.434 42.6055 217.305 40.2852 217.305 38.0352C217.422 33.1133 217.48 29.3047 217.48 26.6094C217.48 26.2344 217.551 24.5703 217.691 21.6172C217.715 21.5 217.727 21.4297 217.727 21.4062C217.914 21.4766 218.102 21.7344 218.289 22.1797C218.5 22.9531 218.605 23.5156 218.605 23.8672C218.699 24.6641 218.746 26.1406 218.746 28.2969C218.816 28.6484 218.852 29.375 218.852 30.4766C218.781 40.5781 218.746 46.5312 218.746 48.3359C218.746 50.8438 218.781 52.0977 218.852 52.0977L218.922 52.168C219.344 51.3477 219.812 50.5391 220.328 49.7422L220.398 49.707C220.469 49.8242 220.574 49.8828 220.715 49.8828C220.996 49.8594 221.289 49.7422 221.594 49.5312C221.922 49.2266 222.109 48.9805 222.156 48.793C222.25 48.4883 222.297 48.2773 222.297 48.1602C222.297 47.7617 222.191 47.4922 221.98 47.3516C221.934 47.3047 221.91 47.2695 221.91 47.2461C221.91 47.0586 222.227 46.7305 222.859 46.2617C223 46.0977 223.07 45.957 223.07 45.8398V45.7695C223.07 45.7227 223.012 45.582 222.895 45.3477C224.957 41.2461 227.57 35.8789 230.734 29.2461C231.297 28.0508 231.707 27.2539 231.965 26.8555C232.762 25.332 233.441 24.0664 234.004 23.0586C234.402 22.3789 234.895 21.7109 235.48 21.0547C235.785 20.7734 236.02 20.6328 236.184 20.6328H236.254C236.793 20.7266 237.191 20.7734 237.449 20.7734C238.762 20.6797 239.605 20.6328 239.98 20.6328H240.156C241.258 20.6328 241.961 21.0312 242.266 21.8281C242.336 22.0625 242.371 22.2383 242.371 22.3555C242.043 23.1055 241.844 23.5039 241.773 23.5508C241.023 24.4883 240.531 25.2734 240.297 25.9062C239.43 27.6172 238.387 29.5039 237.168 31.5664L234.742 36.1719C234.133 37.25 233.828 37.8594 233.828 38C233.852 38.0938 233.863 38.1758 233.863 38.2461V38.3516C233.863 38.7969 233.523 39.8164 232.844 41.4102C232.727 41.6211 232 43.0391 230.664 45.6641H230.629C230.605 45.6641 230.559 45.6406 230.488 45.5938C230.488 45.6172 230.453 45.6758 230.383 45.7695C230.383 45.8398 230.418 45.9102 230.488 45.9805C228.145 50.5508 226.574 53.7148 225.777 55.4727C224.418 58.7539 223.352 60.8516 222.578 61.7656C221.641 62.9609 220.609 63.5586 219.484 63.5586C218.547 63.5586 217.48 63.125 216.285 62.2578C215.91 62.0234 215.5 61.8242 215.055 61.6602C214.562 61.5195 213.742 61.2969 212.594 60.9922C211.984 60.7812 211.527 60.5117 211.223 60.1836C211.105 60.043 211.023 56.6797 210.977 50.0938C210.953 46.1094 210.941 42.957 210.941 40.6367C210.941 31.1914 210.988 24.6055 211.082 20.8789C211.668 20.2227 212.312 19.8945 213.016 19.8945ZM241.035 22.8125C240.543 23.3984 240.273 23.832 240.227 24.1133C240.203 24.1836 240.168 24.3242 240.121 24.5352C240.777 23.7852 241.105 23.2344 241.105 22.8828L241.035 22.8125ZM238.328 27.6641C238.867 27.1719 239.184 26.8086 239.277 26.5742C239.512 26.1992 239.711 25.7656 239.875 25.2734C239.922 25.1328 239.969 24.9453 240.016 24.7109C239.523 25.1562 239.219 25.5078 239.102 25.7656C238.914 26.0234 238.727 26.4102 238.539 26.9258C238.469 27.1133 238.398 27.3594 238.328 27.6641ZM236.852 30.4414C237.32 29.9727 237.555 29.4688 237.555 28.9297C237.227 29.2578 237.016 29.5859 236.922 29.9141C236.875 30.1953 236.852 30.3711 236.852 30.4414ZM235.129 33.5352C235.527 33.0898 235.82 32.6328 236.008 32.1641C236.078 32.0469 236.172 31.7773 236.289 31.3555C235.82 31.8477 235.492 32.3398 235.305 32.832C235.188 33.2305 235.129 33.4648 235.129 33.5352ZM233.758 34.5547C229.422 43.2969 227.207 47.7734 227.113 47.9844L227.605 48.2305C229.387 44.9961 230.98 41.8086 232.387 38.668L234.145 34.6953C233.934 34.6016 233.805 34.5547 233.758 34.5547ZM230.77 44.1875C230.723 44.2812 230.699 44.3398 230.699 44.3633C230.723 44.4336 230.746 44.4688 230.77 44.4688H230.84C230.887 44.4219 230.91 44.375 230.91 44.3281V44.2578C230.91 44.2578 230.887 44.2344 230.84 44.1875H230.77Z" fill="#262525"/>
<path d="M271.34 19.6133C273.121 19.6133 274.293 19.7539 274.855 20.0352C276.262 20.5742 277.223 21.3359 277.738 22.3203C277.879 22.5547 277.949 22.8008 277.949 23.0586V23.1289C277.949 23.6914 277.738 24.3008 277.316 24.957C276.473 25.2617 275.629 25.4141 274.785 25.4141C270.637 26.1875 267.086 26.9492 264.133 27.6992C263.688 27.8398 262.891 28.0039 261.742 28.1914C261.039 28.2617 260.488 28.2969 260.09 28.2969L260.406 28.5781C260.406 28.6016 260.008 28.6602 259.211 28.7539C257.195 28.8945 255.777 29.0586 254.957 29.2461C254.934 29.2695 254.688 29.3281 254.219 29.4219V29.457C256.867 30.418 259.844 31.4141 263.148 32.4453L265.328 33.1836C266.078 33.3242 266.629 33.4883 266.98 33.6758C267.121 33.7227 267.215 33.793 267.262 33.8867C267.355 34.0273 267.402 34.3555 267.402 34.8711C267.73 35.8789 267.895 36.5469 267.895 36.875V37.3672C267.895 37.5781 267.848 37.6836 267.754 37.6836C267.027 38.1289 265.949 38.6094 264.52 39.125C263.582 39.4062 262.949 39.5469 262.621 39.5469C258.262 40.2031 254.582 40.9531 251.582 41.7969C250.598 42.0781 249.684 42.3477 248.84 42.6055C248.84 42.6289 249.004 42.7695 249.332 43.0273C248.84 43.3789 248.43 43.7188 248.102 44.0469C248.031 44.1172 247.82 44.5156 247.469 45.2422C247.07 45.8281 246.777 46.5312 246.59 47.3516L246.273 48.3008C246.18 48.8398 246.098 49.543 246.027 50.4102C246.004 50.5273 245.969 50.5859 245.922 50.5859C245.734 50.5859 245.605 50.832 245.535 51.3242C245.207 52.543 245.043 53.3633 245.043 53.7852C244.785 55.3086 244.656 56.2695 244.656 56.668V56.7383C244.656 57.3945 244.797 57.8984 245.078 58.25C245.242 58.5312 245.488 58.8242 245.816 59.1289L245.57 57.8281C245.547 57.6641 245.535 57.4414 245.535 57.1602V56.9844C245.535 56.7969 245.559 56.4453 245.605 55.9297C245.605 55.7422 245.547 55.4492 245.43 55.0508C245.43 54.9336 245.547 54.6992 245.781 54.3477C246.062 53.8086 246.203 53.3164 246.203 52.8711V52.6953L246.133 51.7461C246.133 50.293 246.59 48.4883 247.504 46.332C247.902 45.4648 248.406 44.7266 249.016 44.1172C249.086 44.0703 249.168 43.8711 249.262 43.5195C249.332 43.3789 249.449 43.3086 249.613 43.3086C250.035 43.3555 250.246 43.543 250.246 43.8711C250.246 44.0117 250.012 44.5625 249.543 45.5234C248.816 47 248.195 48.4414 247.68 49.8477C246.977 51.8164 246.625 53.668 246.625 55.4023C246.625 56.7617 246.848 58.1797 247.293 59.6562H247.328C248.312 59.6328 251.23 58.5664 256.082 56.457C258.637 55.3086 260.465 54.3945 261.566 53.7148C261.965 53.4102 262.492 53.1055 263.148 52.8008C264.273 52.332 265.188 52.0977 265.891 52.0977H266.031C266.43 52.0977 266.711 52.1914 266.875 52.3789C266.922 52.4727 266.945 52.5781 266.945 52.6953C266.852 53.3984 266.805 53.7969 266.805 53.8906V54.0312C266.805 54.0781 266.828 54.1836 266.875 54.3477C266.078 54.7227 265.27 55.2383 264.449 55.8945C264.285 56.082 264.203 56.1875 264.203 56.2109C264.367 56.2109 264.707 56.0938 265.223 55.8594L266.277 55.0859C266.395 54.9922 266.535 54.9102 266.699 54.8398V54.875C266.676 54.9219 266.664 55.0039 266.664 55.1211C266.734 55.707 266.77 56.0352 266.77 56.1055C266.699 56.5508 266.078 57.2422 264.906 58.1797C263.594 59.1641 262.176 60.0195 260.652 60.7461C259.387 61.4023 257.945 62.0352 256.328 62.6445V62.3281C255.93 62.5391 255.461 62.7148 254.922 62.8555C254.5 62.9727 253.879 63.0547 253.059 63.1016C252.402 63.2656 251.898 63.4297 251.547 63.5938C251.242 63.8281 250.797 64.0156 250.211 64.1562C248.406 64.4141 246.941 64.7188 245.816 65.0703C245.816 65.0938 245.77 65.1055 245.676 65.1055C244.527 65.1055 243.613 64.7891 242.934 64.1562C240.824 62.5156 239.77 59.9844 239.77 56.5625C239.77 53.4453 240.637 49.6484 242.371 45.1719H242.301C241.855 45.1719 241.469 44.7734 241.141 43.9766C240.977 43.6719 240.789 43.1094 240.578 42.2891L240.473 41.7969C240.496 41.2812 240.543 40.7656 240.613 40.25V40.2148C240.613 40.168 240.625 40.1445 240.648 40.1445L240.613 40.0742V40.0039C240.613 39.7695 240.684 39.3828 240.824 38.8438C240.848 38.4922 240.93 38.3164 241.07 38.3164C241.609 38.1055 242.512 37.8477 243.777 37.543C244.363 37.3789 244.656 37.2617 244.656 37.1914V37.1211C244.656 37.0508 244.516 37.0156 244.234 37.0156H244.129C243.918 37.0156 243.402 37.1445 242.582 37.4023C241.855 37.5898 241.422 37.6836 241.281 37.6836C241.234 37.4727 241.211 37.3086 241.211 37.1914C241.281 36.9102 241.34 36.7695 241.387 36.7695L241.562 36.418C244.797 35.6445 249.367 34.7188 255.273 33.6406C257.125 33.2891 258.695 33.0312 259.984 32.8672V32.832C258.133 32.3164 255.461 31.6602 251.969 30.8633C250.844 30.5586 249.801 30.2773 248.84 30.0195C248.582 30.043 248.359 30.0547 248.172 30.0547H247.891C246.555 30.0547 245.512 29.5156 244.762 28.4375C244.316 27.7109 244.059 26.9375 243.988 26.1172C243.988 25.9297 243.824 25.3203 243.496 24.2891C243.473 24.1953 243.449 24.043 243.426 23.832C243.426 23.457 243.637 23.1875 244.059 23.0234C244.902 22.6484 246.719 22.2031 249.508 21.6875C252.344 21.1484 256.609 20.6094 262.305 20.0703C266.008 19.7656 269.02 19.6133 271.34 19.6133ZM254.887 22.25V22.2852C254.887 22.4492 255.086 22.5312 255.484 22.5312H255.555C256.867 22.4141 258.414 22.2734 260.195 22.1094C260.57 22.0156 260.945 21.9688 261.32 21.9688C261.414 21.9688 261.695 21.9922 262.164 22.0391C262.258 22.0156 262.305 21.9688 262.305 21.8984C262.305 21.6172 261.965 21.4766 261.285 21.4766H260.758C258.977 21.4766 257.148 21.6406 255.273 21.9688C255.016 22.0391 254.887 22.1328 254.887 22.25ZM245.887 23.9727C245.98 24.2305 246.203 24.3711 246.555 24.3945C247.164 24.3945 247.785 24.2539 248.418 23.9727C249.004 23.7383 249.988 23.4922 251.371 23.2344C252.543 23.0234 253.328 22.8359 253.727 22.6719V22.4961C253.656 22.3789 253.41 22.3203 252.988 22.3203H252.777C252.613 22.3203 252.039 22.4375 251.055 22.6719C250.164 22.8594 249.027 23.0117 247.645 23.1289C247.129 23.1523 246.578 23.3281 245.992 23.6562C245.922 23.7734 245.887 23.8789 245.887 23.9727ZM250.703 35.4688C250.633 35.5156 250.598 35.5859 250.598 35.6797C250.621 35.7266 250.668 35.75 250.738 35.75H250.773C250.844 35.75 250.879 35.7148 250.879 35.6445V35.6094C250.879 35.5156 250.82 35.4688 250.703 35.4688ZM249.402 35.9609V35.9961C249.402 36.0898 249.449 36.1367 249.543 36.1367C249.637 36.1367 249.707 36.0898 249.754 35.9961C249.73 35.8789 249.684 35.8203 249.613 35.8203H249.543C249.449 35.8203 249.402 35.8672 249.402 35.9609ZM248.137 36.3477C248.137 36.418 248.16 36.4648 248.207 36.4883H248.277C248.418 36.4883 248.488 36.4062 248.488 36.2422V36.207C248.465 36.1367 248.418 36.1016 248.348 36.1016C248.207 36.1016 248.137 36.1836 248.137 36.3477ZM245.887 37.1211C245.887 37.1914 245.957 37.25 246.098 37.2969C246.098 37.2969 246.109 37.2969 246.133 37.2969C246.414 37.2969 246.766 37.1445 247.188 36.8398C247.328 36.6992 247.398 36.5703 247.398 36.4531C247.328 36.3125 247.258 36.2422 247.188 36.2422C246.625 36.4062 246.191 36.6758 245.887 37.0508V37.1211ZM251.336 42.3242C251.359 42.3242 251.406 42.3477 251.477 42.3945C251.477 42.6992 251.277 42.9453 250.879 43.1328C250.762 43.1562 250.645 43.168 250.527 43.168H250.492C250.352 43.168 250.281 43.1094 250.281 42.9922V42.9219C250.281 42.6875 250.574 42.4883 251.16 42.3242H251.336ZM263.219 56.7383C263.523 56.7148 263.793 56.5859 264.027 56.3516V56.3164C263.746 56.3164 263.477 56.457 263.219 56.7383ZM261.039 57.6523V57.6875C261.203 57.6875 261.297 57.6875 261.32 57.6875C261.859 57.6875 262.316 57.4414 262.691 56.9492C262.691 56.9492 262.645 56.9375 262.551 56.9141C261.918 56.9141 261.414 57.1602 261.039 57.6523ZM260.582 57.9688H260.617C260.828 57.8984 260.934 57.8281 260.934 57.7578H260.898C260.781 57.7578 260.676 57.8281 260.582 57.9688Z" fill="#262525"/>
<path d="M279.391 16.9414H279.426C280.059 16.9648 280.375 17.0117 280.375 17.082C280.375 17.1523 280.551 17.3164 280.902 17.5742C280.902 17.668 281.148 17.75 281.641 17.8203C282.039 17.9844 282.484 18.2656 282.977 18.6641C283.445 18.8984 284.266 19.2734 285.438 19.7891C285.438 19.8125 285.484 19.8242 285.578 19.8242C285.836 19.7773 285.977 19.7539 286 19.7539C286.281 19.7539 286.598 20.3164 286.949 21.4414C287.184 22.0742 287.395 22.4375 287.582 22.5312C288.004 22.7422 288.215 22.8945 288.215 22.9883C289.246 25.0273 290.324 27.6406 291.449 30.8281C291.73 31.625 292.164 32.5859 292.75 33.7109C294.273 36.7109 295.738 39.6523 297.145 42.5352V42.7461C297.145 42.8164 297.227 43.1328 297.391 43.6953C297.391 43.9062 297.52 44.2344 297.777 44.6797L298.199 45.6992L298.762 46.1211H298.902C300.473 38.6211 301.797 32.4922 302.875 27.7344C303.461 25.3438 303.988 22.8828 304.457 20.3516C304.621 19.6719 304.797 19.168 304.984 18.8398C305.312 18.3242 305.781 18.0664 306.391 18.0664C307.047 18.0664 307.914 18.3242 308.992 18.8398C309.109 18.957 309.309 19.2148 309.59 19.6133C309.707 19.707 309.766 19.7539 309.766 19.7539C309.695 20.1523 309.59 20.9609 309.449 22.1797C309.215 23.4922 308.934 24.6172 308.605 25.5547C308.441 25.9297 308.312 26.3984 308.219 26.9609C308.148 27.4766 308.113 27.793 308.113 27.9102V27.9453L308.148 27.9102C308.172 27.9336 308.184 27.957 308.184 27.9805C307.691 30.8633 307.445 32.7852 307.445 33.7461C307.422 33.7461 307.375 34.2969 307.305 35.3984C307.422 36.2891 307.551 36.7344 307.691 36.7344C307.691 36.7812 307.762 36.8047 307.902 36.8047C308.066 36.8047 308.16 36.5469 308.184 36.0312C308.113 35.0703 308.078 34.5078 308.078 34.3438V34.2383C308.078 33.7227 308.23 32.9727 308.535 31.9883C308.605 31.7305 308.641 31.4961 308.641 31.2852C308.617 30.4414 308.605 29.9258 308.605 29.7383C308.676 29.2227 308.828 28.4141 309.062 27.3125C309.086 26.7734 309.273 26.0234 309.625 25.0625L309.59 24.8867V24.1133C309.59 24.0195 309.578 23.9609 309.555 23.9375H309.484L310.012 21.6875C310.223 20.8672 310.387 20.3398 310.504 20.1055C310.621 20.0352 310.703 20 310.75 20H310.855C311.113 20 311.312 20.293 311.453 20.8789V20.9141C310.938 23.4688 310.246 27.5 309.379 33.0078C307.832 42.4297 306.672 49.3555 305.898 53.7852C304.914 59.5039 304.059 63.9219 303.332 67.0391C303.145 67.8125 302.945 68.4102 302.734 68.832C302.242 68.832 301.27 68.6328 299.816 68.2344C298.738 68 297.977 67.7656 297.531 67.5312C296.359 66.8984 295.773 65.7969 295.773 64.2266V63.8047C295.773 63.4297 295.867 62.1641 296.055 60.0078L296.09 59.0938C296.09 57.5938 295.75 56.3398 295.07 55.332C293.547 52.6133 291.203 48.2539 288.039 42.2539C287.008 40.3555 285.953 38.3516 284.875 36.2422H284.84C284.84 36.6641 284.688 37.3555 284.383 38.3164C284.102 38.9961 283.961 39.5586 283.961 40.0039C283.164 48.043 282.578 53.4453 282.203 56.2109C282.062 57.4766 281.898 58.5078 281.711 59.3047C281.57 59.8672 281.418 60.2656 281.254 60.5C281.137 60.6875 280.973 60.7812 280.762 60.7812C279.895 60.6875 278.488 59.8789 276.543 58.3555C275.793 57.7461 275.418 57.3125 275.418 57.0547C275.184 56.2109 275.066 55.0742 275.066 53.6445V53.3633C275.066 50.5742 275.594 45.875 276.648 39.2656C277.375 34.8125 277.984 30.5938 278.477 26.6094C278.688 24.3594 278.793 22.5781 278.793 21.2656V20.668C278.793 19.7773 278.793 19.2852 278.793 19.1914V19.1562C278.793 18.2188 278.98 17.4922 279.355 16.9766L279.391 16.9414ZM294.262 40.6016C294.402 41.1875 294.637 41.6328 294.965 41.9375C295.199 42.1719 295.398 42.2891 295.562 42.2891C295.633 42.3125 295.691 42.3242 295.738 42.3242C295.902 42.2305 295.984 42.1133 295.984 41.9727V41.9375C295.797 41.3047 295.398 40.7773 294.789 40.3555C294.672 40.2617 294.602 40.2148 294.578 40.2148H294.508C294.391 40.2148 294.32 40.3086 294.297 40.4961C294.297 40.5195 294.285 40.5547 294.262 40.6016ZM280.586 52.9062C280.586 52.9531 280.598 53.0703 280.621 53.2578C280.621 53.4453 280.621 53.6328 280.621 53.8203C280.621 54.4062 280.738 54.9453 280.973 55.4375H281.008C281.289 54.8047 281.43 54.2539 281.43 53.7852C281.43 53.6445 281.418 53.2812 281.395 52.6953C281.559 50.4453 281.664 49.3203 281.711 49.3203C282.062 47.5391 282.238 46.3086 282.238 45.6289C282.449 44.5273 282.625 43.4727 282.766 42.4648C282.508 42.7695 282.32 43.0977 282.203 43.4492C282.109 43.6602 282.004 44.2461 281.887 45.207C281.746 45.8164 281.488 46.9414 281.113 48.582C280.973 49.3086 280.797 50.75 280.586 52.9062ZM295.844 43.5547C295.844 43.8125 295.938 43.9414 296.125 43.9414H296.23C296.371 43.8945 296.441 43.8242 296.441 43.7305V43.6602C296.418 43.4727 296.324 43.3789 296.16 43.3789H296.125C295.938 43.3789 295.844 43.4375 295.844 43.5547ZM296.617 45.4531V45.4883C296.664 45.6758 296.746 45.7695 296.863 45.7695C297.004 45.6758 297.074 45.582 297.074 45.4883V45.4531C297.051 45.2891 296.98 45.207 296.863 45.207C296.699 45.207 296.617 45.2891 296.617 45.4531ZM297.391 47.1758C297.391 47.3164 297.426 47.3867 297.496 47.3867C297.684 47.3867 297.789 47.3164 297.812 47.1758C297.812 47.0352 297.742 46.9648 297.602 46.9648H297.566C297.449 46.9648 297.391 47.0352 297.391 47.1758ZM301.574 67.6367C301.574 67.7539 301.691 67.8125 301.926 67.8125C302.113 67.5781 302.383 66.7461 302.734 65.3164C303.086 63.793 303.449 61.8008 303.824 59.3398C304.129 58.2852 304.281 57.7578 304.281 57.7578C304.422 57.125 304.492 56.7031 304.492 56.4922C304.492 56.1875 304.375 56.0352 304.141 56.0352C303.906 56.0352 303.766 56.2344 303.719 56.6328C303.391 57.9688 303.227 58.9062 303.227 59.4453C303.062 60.5 302.805 61.8828 302.453 63.5938C302.242 64.5781 301.984 65.5977 301.68 66.6523C301.609 67.2617 301.574 67.5898 301.574 67.6367Z" fill="#262525"/>
<path d="M332.512 6.57031H333.039C333.719 6.57031 334.164 6.75781 334.375 7.13281C334.445 7.29688 334.48 7.53125 334.48 7.83594C334.48 8.04688 334.469 8.30469 334.445 8.60938C338.734 7.88281 342.086 7.51953 344.5 7.51953C348.602 7.51953 352.012 8.32812 354.73 9.94531C355.387 10.3906 355.902 11.3398 356.277 12.793C356.535 13.8711 356.664 14.6562 356.664 15.1484C356.664 15.2891 356.418 15.3711 355.926 15.3945C355.199 15.3945 354.027 15.0898 352.41 14.4805C351.637 14.2461 350.863 14.1289 350.09 14.1289C349.129 14.1289 347.301 14.3984 344.605 14.9375C343.27 15.1719 341.523 15.418 339.367 15.6758C336.578 15.9336 334.562 16.1328 333.32 16.2734C333.508 16.2734 333.602 16.2969 333.602 16.3438C333.344 16.3906 333.215 16.4258 333.215 16.4492C331.738 23.9258 330.238 30.6055 328.715 36.4883C328.246 38.5508 327.754 40.9297 327.238 43.625C327.191 43.625 327.168 43.6719 327.168 43.7656C326.582 46.7188 326.113 49.4961 325.762 52.0977C325.691 52.8242 325.562 53.8555 325.375 55.1914C324.812 59.293 324.531 62 324.531 63.3125V63.6992C324.531 64.8008 324.66 67.6367 324.918 72.207V72.8047C324.918 73.0391 324.895 73.1562 324.848 73.1562H324.25C324.156 73.1562 324.062 73.0859 323.969 72.9453C323.781 72.8281 323.652 72.7695 323.582 72.7695V72.6641C323.582 72.4297 323.734 72.1016 324.039 71.6797C324.133 71.4922 324.18 71.3516 324.18 71.2578V71.1172C324.18 70.9297 323.934 70.6836 323.441 70.3789L323.477 70.3438C323.43 70.1094 323.406 69.8633 323.406 69.6055V69.5703C323.406 69.5469 323.395 69.5234 323.371 69.5L323.406 69.3945V69.2891C323.406 68.7969 323.535 68.2109 323.793 67.5312C323.793 67.5078 323.793 67.4727 323.793 67.4258C323.793 67.332 323.723 67.0977 323.582 66.7227C323.441 66.207 323.371 65.6211 323.371 64.9648V64.6133C323.371 63.418 323.488 62.4453 323.723 61.6953C323.77 61.5781 323.852 61.4609 323.969 61.3438C324.086 61.1094 324.145 60.8867 324.145 60.6758C324.145 60.5117 324.062 60.1836 323.898 59.6914C323.805 59.3164 323.758 59 323.758 58.7422V58.4961C323.758 58.1445 323.863 57.582 324.074 56.8086C324.168 56.3633 324.238 55.5312 324.285 54.3125C324.402 53.3047 324.555 52.3438 324.742 51.4297C324.977 50.3984 325.293 48.6055 325.691 46.0508C325.855 45.0664 325.938 44.4219 325.938 44.1172C325.938 43.9531 325.844 43.8711 325.656 43.8711C325.422 43.918 325.305 44.0234 325.305 44.1875C325.07 44.7734 324.848 45.5352 324.637 46.4727C324.52 46.8945 324.438 47.4922 324.391 48.2656C324.18 49.8359 323.875 51.7109 323.477 53.8906C323.219 55.2734 322.996 56.9375 322.809 58.8828C322.363 61.2734 322.141 63.3477 322.141 65.1055C322.141 65.7617 322.176 66.3477 322.246 66.8633L322.211 66.9336C322.211 68.0586 322.211 68.7852 322.211 69.1133C322.211 70.3086 322.246 71.5039 322.316 72.6992H322.246C322.012 72.6289 321.637 72.4297 321.121 72.1016C320.16 71.4219 319.551 70.7305 319.293 70.0273C318.59 68.3398 318.238 65.5391 318.238 61.625C318.238 58.2031 318.496 54.4883 319.012 50.4805C319.293 48.6289 319.691 46.4141 320.207 43.8359C320.23 43.8359 320.242 43.7656 320.242 43.625C320.242 43.625 320.23 43.6133 320.207 43.5898C321.824 35.2695 323.746 26.7031 325.973 17.8906C321.965 18.9219 318.309 20.0469 315.004 21.2656C312.543 22.1562 311.113 22.6016 310.715 22.6016C309.871 22.6016 309.156 22.2383 308.57 21.5117C308.172 20.9727 307.973 20.457 307.973 19.9648C307.926 19.3555 307.516 18.5 306.742 17.3984C306.695 17.3516 306.672 17.293 306.672 17.2227V17.1523C306.672 16.5898 308.477 15.7578 312.086 14.6562C314.336 13.9297 316.305 13.2266 317.992 12.5469C320.289 11.75 323.195 10.9531 326.711 10.1562C326.711 10.1328 326.711 10.1211 326.711 10.1211C326.711 10.0977 326.711 10.0859 326.711 10.0859C326.711 9.71094 326.676 9.04297 326.605 8.08203C327.754 7.63672 328.914 7.25 330.086 6.92188C331.141 6.6875 331.949 6.57031 332.512 6.57031ZM322.598 12.582C323.184 12.4883 323.477 12.3711 323.477 12.2305C323.43 12.043 323.348 11.9492 323.23 11.9492C323.09 11.9492 322.879 12.1602 322.598 12.582ZM310.328 17.1875C310.562 17.2812 310.797 17.3281 311.031 17.3281C311.477 17.3281 312.027 17.1992 312.684 16.9414C315.145 16.168 317.312 15.3125 319.188 14.375C320.289 13.8594 321.355 13.2852 322.387 12.6523H322.211C321.367 12.6523 320.5 12.8867 319.609 13.3555C319.281 13.5195 318.461 13.8125 317.148 14.2344C315.367 14.8438 313.305 15.6289 310.961 16.5898C310.867 16.6367 310.656 16.8359 310.328 17.1875ZM309.309 17.3984V17.4336C309.309 17.4805 309.367 17.5039 309.484 17.5039C309.695 17.5039 309.918 17.4102 310.152 17.2227C310.152 17.1992 310.012 17.1641 309.73 17.1172H309.625C309.414 17.1406 309.309 17.2344 309.309 17.3984ZM328.855 30.8281C328.551 31.4141 328.398 31.9648 328.398 32.4805V32.7617H328.434C328.785 32.0117 328.961 31.4375 328.961 31.0391V30.9688C328.961 30.9219 328.926 30.875 328.855 30.8281ZM328.328 32.9727C327.766 33.8867 327.484 34.8477 327.484 35.8555V36.2422H327.52C328.082 35.3984 328.363 34.3555 328.363 33.1133C328.363 33.043 328.363 32.9961 328.363 32.9727H328.328ZM327.027 37.7188C326.816 38.1406 326.711 38.5508 326.711 38.9492C326.734 39.1367 326.746 39.2773 326.746 39.3711C326.98 38.9961 327.098 38.6328 327.098 38.2812V38.0703C327.098 37.9766 327.086 37.8594 327.062 37.7188H327.027ZM326.43 40.4258C326.055 41.1523 325.867 41.832 325.867 42.4648V42.8516H325.902C326.277 42.0781 326.465 41.3164 326.465 40.5664C326.441 40.5195 326.43 40.4727 326.43 40.4258Z" fill="#262525"/>
</svg>
