<svg width="275" height="68" viewBox="0 0 275 68" fill="none" xmlns="http://www.w3.org/2000/svg">
<path d="M131.076 54.7434H127.948V4.14533H3.12732V54.7434H0V0H131.076V54.7434Z" fill="white"/>
<path d="M28.7729 56.0558C23.3516 56.0558 18.879 54.5288 15.3551 51.4748C11.1627 47.8425 9.06641 42.5387 9.06641 35.5632C9.06641 28.66 11.4699 23.4556 16.2768 19.9498C19.9452 17.2752 24.21 15.938 29.0711 15.938C33.7877 15.938 37.5194 16.1548 40.2662 16.5885L41.8383 16.8325V30.8195H38.1247V20.0582C35.4141 19.7871 32.3962 19.6516 29.0711 19.6516C25.9448 19.6516 23.0173 20.3654 20.2886 21.793C15.2829 24.4495 12.78 29.0395 12.78 35.5632C12.78 42.1411 14.8401 46.8305 18.9603 49.6316C21.6349 51.4387 24.9057 52.3422 28.7729 52.3422C30.8873 52.3422 32.9745 51.9356 35.0346 51.1224C37.3658 50.2189 39.1006 48.9629 40.2391 47.3546L41.2962 45.8366L44.3322 47.9781L43.275 49.496C41.7751 51.6103 39.5704 53.2729 36.661 54.4837C34.0949 55.5318 31.4655 56.0558 28.7729 56.0558Z" fill="white"/>
<path d="M57.8584 27.8107V51.6917H62.4394V55.5137H48.5879V51.6917H53.955V31.6056H48.5879V27.8107H57.8584ZM53.6568 16.6428H57.4789V21.9557H53.6568V16.6428Z" fill="white"/>
<path d="M72.6857 44.1289C72.6857 47.3456 73.4266 49.5683 74.9085 50.7971C75.9927 51.7007 77.6824 52.1525 79.9774 52.1525H83.5826V55.7848H79.9774C72.6948 55.7848 69.0534 51.8995 69.0534 44.1289V31.3075H65.123V27.6752H69.0534V23.6905H65.7735V20.0582H72.6857V27.6752H81.902V31.3075H72.6857V44.1289Z" fill="white"/>
<path d="M107.328 27.7836H119.092V31.5785H116.056L104.753 56.0558C102.783 61.5494 100.1 64.9649 96.7022 66.3022C95.3107 66.8624 93.7837 67.1425 92.1212 67.1425C89.79 67.1425 87.5221 66.6094 85.3174 65.5432L86.9709 62.1277C88.7238 62.9951 90.4135 63.4288 92.0399 63.4288C93.1603 63.4288 94.2536 63.212 95.3198 62.7783C96.5486 62.2904 97.7774 61.0796 99.0063 59.146C99.8918 57.7726 100.597 56.363 101.121 54.9174L90.2508 31.5785H86.3475V27.7836H99.0063V31.5785H94.4524L103.181 50.3905L111.882 31.5785H107.328V27.7836Z" fill="white"/>
<path d="M155.324 18.1313H156.056C157.773 18.1313 158.866 18.2488 159.336 18.4837C159.842 18.6644 160.411 19.0258 161.044 19.568C161.423 19.9294 161.658 20.2185 161.749 20.4354C161.803 20.598 161.83 20.7968 161.83 21.0317C161.83 21.3932 161.685 21.7817 161.396 22.1973C160.782 22.3961 160.357 22.4955 160.122 22.4955C159.67 22.5136 159.21 22.5859 158.74 22.7123L153.237 24.2303C152.334 24.411 151.548 24.5014 150.879 24.5014L151.123 24.7182C150.671 24.7905 149.686 24.8899 148.168 25.0164C148.15 25.0345 147.861 25.0797 147.301 25.1519C147.012 25.9109 146.695 26.8506 146.352 27.971H146.379C147.518 27.7542 148.575 27.5825 149.551 27.456C151.177 27.2753 152.668 27.1217 154.023 26.9952C154.475 27.0494 154.773 27.0946 154.918 27.1307C155.062 27.1849 155.135 27.2663 155.135 27.3747C155.695 27.4831 156.129 27.6096 156.436 27.7542C156.562 27.7903 156.653 27.8988 156.707 28.0795L156.815 28.7842C157.086 29.4348 157.222 29.9679 157.222 30.3835V30.7088C157.005 30.8895 156.4 31.1877 155.406 31.6033C154.412 31.9828 153.725 32.1726 153.346 32.1726C150.075 32.6605 147.292 33.2297 144.997 33.8803C144.129 34.1333 143.479 34.3411 143.045 34.5037C143.28 34.6664 143.397 34.7567 143.397 34.7748V34.8019C142.783 35.2718 142.467 35.579 142.449 35.7235L142.042 36.5096C141.717 37.1241 141.527 37.6391 141.473 38.0547C141.437 38.1812 141.41 38.2445 141.392 38.2445V38.2987C141.337 38.624 141.364 38.8498 141.473 38.9763C141.473 38.9763 141.464 39.0577 141.446 39.2203C141.319 39.2203 141.238 39.2836 141.202 39.41C140.931 40.5305 140.795 41.3346 140.795 41.8225C140.669 42.7803 140.605 43.3857 140.605 43.6387C140.605 44.2712 140.741 44.732 141.012 45.0211C141.12 45.2018 141.301 45.4097 141.554 45.6446C141.355 44.9398 141.256 44.4248 141.256 44.0995C141.256 44.0091 141.265 43.6929 141.283 43.1508C141.283 43.0604 141.238 42.8707 141.148 42.5815V42.5273C141.148 42.4731 141.247 42.2834 141.446 41.9581C141.59 41.6147 141.663 41.2804 141.663 40.9551C141.663 40.919 141.636 40.6298 141.581 40.0877V39.9522C141.455 39.0306 141.744 37.9101 142.449 36.591C142.575 36.356 142.837 36.0217 143.235 35.588C143.289 35.4796 143.343 35.326 143.397 35.1272C143.452 35.0549 143.524 35.0188 143.614 35.0188H143.669C143.976 35.0549 144.129 35.1995 144.129 35.4525C144.129 35.5609 143.949 36.0127 143.587 36.8078C143.135 37.8017 142.819 38.5065 142.638 38.9221C142.223 40.2052 142.015 41.3617 142.015 42.3918C142.015 43.5303 142.232 44.741 142.666 46.0241C143.443 45.9879 145.376 45.2922 148.466 43.9369C151.141 42.7442 152.776 41.9129 153.373 41.443C154.638 40.7021 155.677 40.3317 156.49 40.3317C157.014 40.3317 157.276 40.4943 157.276 40.8196L157.168 41.687V41.7141C157.168 41.8045 157.195 41.9129 157.249 42.0394C156.707 42.3285 156.192 42.6538 155.704 43.0152C155.505 43.1779 155.361 43.3224 155.27 43.4489C155.704 43.3586 156.065 43.1869 156.354 42.9339C156.716 42.6267 156.969 42.455 157.113 42.4189C157.113 42.437 157.104 42.5002 157.086 42.6086L157.222 43.3405C157.222 43.6297 156.815 44.1266 156.002 44.8314C154.954 45.6446 153.797 46.3493 152.532 46.9457C151.575 47.4336 150.581 47.8764 149.551 48.2739V48.0571C149.334 48.1836 148.972 48.3191 148.466 48.4637C147.997 48.554 147.563 48.5992 147.165 48.5992C146.985 48.6173 146.596 48.7438 146 48.9787C145.819 49.1233 145.539 49.2498 145.159 49.3582C144.943 49.4124 144.4 49.5118 143.533 49.6564C142.919 49.7829 142.286 49.9365 141.636 50.1172H141.554C140.741 50.1172 140.072 49.9003 139.548 49.4666C137.795 48.1474 136.919 46.0692 136.919 43.2321C136.919 41.425 137.317 39.0757 138.112 36.1844C139.413 31.4136 140.352 28.2331 140.931 26.6428C141.545 24.8357 141.97 23.4623 142.205 22.5226V22.4955L142.178 22.1431C142.178 21.4925 142.385 20.8872 142.801 20.327C142.928 20.1282 143.325 19.9113 143.994 19.6764C144.699 19.3873 145.855 19.0981 147.463 18.809C150.228 18.3572 152.849 18.1313 155.324 18.1313ZM147.518 20.2456C147.518 20.3902 147.689 20.4625 148.033 20.4625C149.533 20.336 150.942 20.2005 152.261 20.0559C152.388 20.0559 152.469 20.0559 152.505 20.0559C152.758 20.074 152.93 20.083 153.02 20.083C153.075 20.0649 153.102 20.0378 153.102 20.0017C153.102 19.839 152.957 19.7306 152.668 19.6764C152.596 19.6764 152.559 19.6674 152.559 19.6493C152.541 19.6493 152.523 19.6583 152.505 19.6764C152.397 19.6764 152.27 19.6674 152.126 19.6493C150.626 19.6493 149.162 19.7848 147.734 20.0559C147.59 20.1101 147.518 20.1734 147.518 20.2456ZM143.587 20.842V20.8691C143.587 20.9595 143.678 21.0408 143.858 21.1131C143.894 21.1492 143.94 21.1673 143.994 21.1673C145.06 20.9866 145.945 20.7878 146.65 20.5709C146.668 20.5167 146.677 20.4806 146.677 20.4625C146.623 20.336 146.397 20.2728 146 20.2728C145.855 20.2728 145.593 20.327 145.214 20.4354V20.4083C145.358 20.3179 145.43 20.2637 145.43 20.2456C145.412 20.2095 145.376 20.1914 145.322 20.1914H145.214C144.69 20.1914 144.174 20.336 143.669 20.6251C143.614 20.6974 143.587 20.7697 143.587 20.842ZM149.198 28.0524C149.198 28.0885 149.243 28.1066 149.334 28.1066C149.388 28.1066 149.415 28.0795 149.415 28.0253V27.971C149.397 27.9349 149.361 27.9168 149.307 27.9168C149.234 27.9168 149.198 27.962 149.198 28.0524ZM148.493 28.1608C148.493 28.1969 148.521 28.2331 148.575 28.2692H148.629C148.719 28.2511 148.765 28.215 148.765 28.1608C148.746 28.0885 148.71 28.0524 148.656 28.0524H148.602C148.53 28.0524 148.493 28.0885 148.493 28.1608ZM147.68 28.3234C147.698 28.3957 147.716 28.4319 147.734 28.4319H147.843C147.915 28.4319 147.96 28.3686 147.978 28.2421C147.96 28.1879 147.924 28.1608 147.87 28.1608H147.843C147.753 28.1608 147.698 28.215 147.68 28.3234ZM146.027 28.974C146.027 29.0101 146.081 29.0463 146.189 29.0824V29.1095C146.442 29.0734 146.686 28.974 146.921 28.8113C147.066 28.6848 147.138 28.5674 147.138 28.459C147.102 28.3686 147.048 28.3234 146.976 28.3234H146.948C146.732 28.3415 146.442 28.5132 146.081 28.8385C146.045 28.8927 146.027 28.9378 146.027 28.974ZM144.861 34.2327C144.915 34.2327 144.97 34.2598 145.024 34.314C145.024 34.6031 144.816 34.8019 144.4 34.9103H144.319C144.193 34.8923 144.129 34.8381 144.129 34.7477V34.7206C144.129 34.5218 144.346 34.3682 144.78 34.2598L144.861 34.2327ZM154.565 43.8555C154.8 43.8013 154.972 43.72 155.08 43.6116L155.162 43.5032H155.135C154.936 43.5032 154.746 43.6206 154.565 43.8555ZM152.966 44.5332L153.047 44.5603H153.183C153.58 44.5603 153.906 44.3706 154.159 43.9911C154.105 43.9911 154.059 43.982 154.023 43.964C153.59 43.964 153.237 44.1537 152.966 44.5332ZM152.641 44.7501C152.731 44.7501 152.803 44.6958 152.858 44.5874H152.831C152.758 44.5874 152.695 44.6416 152.641 44.7501Z" fill="#D8FF69"/>
<path d="M164.242 15.3393H164.297C164.676 15.3393 165.372 15.5743 166.384 16.0441C166.528 16.1164 166.754 16.2068 167.062 16.3152V16.3423C167.025 16.776 167.007 17.2187 167.007 17.6705C167.007 18.2126 167.007 18.6554 167.007 18.9987V22.116C167.007 23.1822 166.953 24.0406 166.845 24.6911C166.772 25.0887 166.736 25.5134 166.736 25.9651V26.0194C166.736 26.941 166.908 29.3987 167.251 33.3924C167.251 34.4586 167.522 35.6242 168.064 36.8891H168.092C168.092 36.8349 168.092 36.7536 168.092 36.6452C168.092 36.5367 168.01 35.8862 167.848 34.6935C167.649 32.8502 167.549 31.0612 167.549 29.3264C167.64 25.5314 167.685 22.5949 167.685 20.5167C167.685 20.2276 167.739 18.9445 167.848 16.6676C167.866 16.5772 167.875 16.523 167.875 16.5049C168.019 16.5591 168.164 16.7579 168.308 17.1013C168.471 17.6976 168.552 18.1313 168.552 18.4024C168.625 19.0168 168.661 20.1553 168.661 21.8178C168.715 22.0889 168.742 22.6491 168.742 23.4984C168.688 31.2871 168.661 35.8771 168.661 37.2686C168.661 39.2022 168.688 40.169 168.742 40.169L168.796 40.2232C169.122 39.5908 169.483 38.9673 169.881 38.3529L169.935 38.3258C169.989 38.4161 170.07 38.4613 170.179 38.4613C170.396 38.4432 170.622 38.3529 170.856 38.1903C171.109 37.9553 171.254 37.7656 171.29 37.621C171.362 37.3861 171.399 37.2234 171.399 37.1331C171.399 36.8259 171.317 36.6181 171.155 36.5096C171.119 36.4735 171.1 36.4464 171.1 36.4283C171.1 36.2837 171.344 36.0308 171.832 35.6693C171.941 35.5428 171.995 35.4344 171.995 35.344V35.2898C171.995 35.2537 171.95 35.1453 171.859 34.9646C173.45 31.8021 175.465 27.6638 177.904 22.5497C178.338 21.6281 178.654 21.0137 178.853 20.7065C179.467 19.5318 179.991 18.556 180.425 17.7789C180.732 17.2549 181.112 16.7399 181.564 16.2339C181.799 16.017 181.979 15.9086 182.106 15.9086H182.16C182.576 15.9809 182.883 16.017 183.082 16.017C184.094 15.9447 184.744 15.9086 185.033 15.9086H185.169C186.018 15.9086 186.56 16.2158 186.795 16.8302C186.849 17.0109 186.877 17.1465 186.877 17.2368C186.624 17.8151 186.47 18.1223 186.416 18.1584C185.837 18.8813 185.458 19.4867 185.277 19.9746C184.609 21.2938 183.804 22.7485 182.865 24.3387L180.994 27.8897C180.525 28.721 180.29 29.1908 180.29 29.2993C180.308 29.3716 180.317 29.4348 180.317 29.489V29.5703C180.317 29.9137 180.055 30.6998 179.531 31.9286C179.44 32.0913 178.88 33.1846 177.85 35.2085H177.823C177.805 35.2085 177.769 35.1904 177.714 35.1543C177.714 35.1724 177.687 35.2176 177.633 35.2898C177.633 35.344 177.66 35.3983 177.714 35.4525C175.907 38.9763 174.697 41.4159 174.082 42.7713C173.034 45.3012 172.212 46.9186 171.615 47.6234C170.893 48.545 170.097 49.0058 169.23 49.0058C168.507 49.0058 167.685 48.6715 166.763 48.0029C166.474 47.8221 166.158 47.6685 165.815 47.542C165.435 47.4336 164.803 47.2619 163.917 47.027C163.447 46.8644 163.095 46.6566 162.86 46.4036C162.77 46.2951 162.706 43.7019 162.67 38.624C162.652 35.5519 162.643 33.1213 162.643 31.3323C162.643 24.0496 162.679 18.9716 162.752 16.0983C163.203 15.5923 163.7 15.3393 164.242 15.3393ZM185.846 17.5892C185.467 18.041 185.259 18.3753 185.223 18.5921C185.205 18.6464 185.178 18.7548 185.142 18.9174C185.648 18.3391 185.901 17.9145 185.901 17.6434L185.846 17.5892ZM183.759 21.3299C184.175 20.9504 184.419 20.6703 184.491 20.4896C184.672 20.2005 184.825 19.8662 184.952 19.4867C184.988 19.3782 185.024 19.2337 185.06 19.053C184.681 19.3963 184.446 19.6674 184.356 19.8662C184.211 20.0649 184.066 20.3631 183.922 20.7607C183.868 20.9052 183.813 21.095 183.759 21.3299ZM182.621 23.4713C182.982 23.1099 183.163 22.7214 183.163 22.3057C182.91 22.5587 182.747 22.8117 182.675 23.0647C182.639 23.2816 182.621 23.4171 182.621 23.4713ZM181.293 25.8567C181.6 25.5134 181.826 25.161 181.97 24.7996C182.024 24.7092 182.097 24.5014 182.187 24.1761C181.826 24.5556 181.573 24.9351 181.428 25.3146C181.338 25.6218 181.293 25.8025 181.293 25.8567ZM180.235 26.6428C176.892 33.3833 175.185 36.8349 175.112 36.9976L175.492 37.1873C176.865 34.6935 178.094 32.2358 179.178 29.8143L180.534 26.7512C180.371 26.679 180.272 26.6428 180.235 26.6428ZM177.931 34.07C177.895 34.1423 177.877 34.1875 177.877 34.2056C177.895 34.2598 177.913 34.2869 177.931 34.2869H177.986C178.022 34.2507 178.04 34.2146 178.04 34.1785V34.1243C178.04 34.1243 178.022 34.1062 177.986 34.07H177.931Z" fill="#D8FF69"/>
<path d="M209.212 15.1225C210.586 15.1225 211.489 15.2309 211.923 15.4478C213.007 15.8634 213.748 16.4507 214.146 17.2097C214.254 17.3904 214.308 17.5802 214.308 17.7789V17.8332C214.308 18.2669 214.146 18.7367 213.821 19.2427C213.17 19.4776 212.519 19.5951 211.869 19.5951C208.67 20.1914 205.932 20.7787 203.656 21.357C203.312 21.4654 202.698 21.5919 201.812 21.7365C201.27 21.7907 200.845 21.8178 200.538 21.8178L200.782 22.0347C200.782 22.0528 200.475 22.0979 199.861 22.1702C198.306 22.2786 197.213 22.4051 196.581 22.5497C196.563 22.5678 196.373 22.613 196.011 22.6852V22.7123C198.053 23.4533 200.349 24.2213 202.897 25.0164L204.577 25.5857C205.155 25.6941 205.58 25.8206 205.851 25.9651C205.96 26.0013 206.032 26.0555 206.068 26.1278C206.14 26.2362 206.176 26.4892 206.176 26.8868C206.429 27.6638 206.556 28.1789 206.556 28.4319V28.8113C206.556 28.974 206.52 29.0553 206.448 29.0553C205.887 29.3987 205.056 29.7691 203.954 30.1667C203.231 30.3835 202.743 30.492 202.49 30.492C199.129 30.9979 196.292 31.5762 193.978 32.2268C193.219 32.4436 192.515 32.6515 191.864 32.8502C191.864 32.8683 191.991 32.9767 192.244 33.1755C191.864 33.4466 191.548 33.7086 191.295 33.9616C191.241 34.0158 191.078 34.323 190.807 34.8832C190.5 35.335 190.274 35.8771 190.129 36.5096L189.885 37.2415C189.813 37.6572 189.75 38.1993 189.696 38.8679C189.678 38.9583 189.65 39.0034 189.614 39.0034C189.47 39.0034 189.37 39.1932 189.316 39.5727C189.063 40.5124 188.937 41.1449 188.937 41.4702C188.738 42.6448 188.638 43.3857 188.638 43.6929V43.7471C188.638 44.2531 188.747 44.6416 188.964 44.9127C189.09 45.1296 189.28 45.3554 189.533 45.5904L189.343 44.5874C189.325 44.4609 189.316 44.2892 189.316 44.0724V43.9369C189.316 43.7923 189.334 43.5212 189.37 43.1237C189.37 42.9791 189.325 42.7532 189.235 42.446C189.235 42.3556 189.325 42.1749 189.506 41.9039C189.723 41.4882 189.831 41.1087 189.831 40.7654V40.6298L189.777 39.898C189.777 38.7776 190.129 37.3861 190.834 35.7235C191.141 35.0549 191.53 34.4857 192 34.0158C192.054 33.9797 192.117 33.8261 192.189 33.555C192.244 33.4466 192.334 33.3924 192.46 33.3924C192.786 33.4285 192.948 33.5731 192.948 33.8261C192.948 33.9345 192.768 34.3592 192.406 35.1001C191.846 36.2386 191.367 37.3499 190.97 38.4342C190.427 39.9522 190.156 41.3798 190.156 42.7171C190.156 43.7652 190.328 44.8585 190.671 45.997H190.699C191.458 45.9789 193.707 45.1567 197.448 43.5303C199.418 42.6448 200.827 41.94 201.677 41.4159C201.984 41.181 202.391 40.9461 202.897 40.7112C203.764 40.3497 204.469 40.169 205.011 40.169H205.119C205.426 40.169 205.643 40.2413 205.77 40.3859C205.806 40.4582 205.824 40.5395 205.824 40.6298C205.752 41.172 205.716 41.4792 205.716 41.5515V41.6599C205.716 41.696 205.734 41.7774 205.77 41.9039C205.155 42.193 204.532 42.5906 203.899 43.0966C203.773 43.2411 203.71 43.3224 203.71 43.3405C203.836 43.3405 204.098 43.2502 204.496 43.0694L205.309 42.4731C205.399 42.4008 205.508 42.3376 205.634 42.2834V42.3105C205.616 42.3466 205.607 42.4099 205.607 42.5002C205.661 42.952 205.689 43.205 205.689 43.2592C205.634 43.6025 205.155 44.1356 204.252 44.8585C203.24 45.6175 202.147 46.2771 200.972 46.8373C199.996 47.3433 198.885 47.8312 197.638 48.301V48.0571C197.331 48.2197 196.969 48.3552 196.554 48.4637C196.228 48.554 195.749 48.6173 195.117 48.6534C194.611 48.7799 194.222 48.9064 193.951 49.0329C193.716 49.2136 193.373 49.3582 192.921 49.4666C191.53 49.6654 190.4 49.9003 189.533 50.1714C189.533 50.1895 189.497 50.1985 189.425 50.1985C188.539 50.1985 187.834 49.9545 187.31 49.4666C185.684 48.2016 184.871 46.25 184.871 43.6116C184.871 41.2081 185.539 38.2806 186.877 34.829H186.822C186.479 34.829 186.181 34.5218 185.928 33.9074C185.801 33.6725 185.657 33.2388 185.494 32.6063L185.413 32.2268C185.431 31.8292 185.467 31.4317 185.521 31.0341V31.007C185.521 30.9708 185.53 30.9528 185.548 30.9528L185.521 30.8986V30.8443C185.521 30.6636 185.575 30.3655 185.684 29.9498C185.702 29.6788 185.765 29.5432 185.874 29.5432C186.289 29.3806 186.985 29.1818 187.961 28.9469C188.413 28.8204 188.638 28.73 188.638 28.6758V28.6216C188.638 28.5674 188.53 28.5403 188.313 28.5403H188.232C188.069 28.5403 187.672 28.6397 187.039 28.8385C186.479 28.983 186.145 29.0553 186.036 29.0553C186 28.8927 185.982 28.7662 185.982 28.6758C186.036 28.459 186.081 28.3505 186.118 28.3505L186.253 28.0795C188.747 27.4831 192.271 26.7693 196.825 25.938C198.252 25.667 199.463 25.4682 200.457 25.3417V25.3146C199.029 24.917 196.969 24.411 194.277 23.7966C193.409 23.5617 192.605 23.3448 191.864 23.1461C191.665 23.1641 191.494 23.1732 191.349 23.1732H191.132C190.102 23.1732 189.298 22.7575 188.72 21.9263C188.376 21.3661 188.178 20.7697 188.123 20.1372C188.123 19.9926 187.997 19.5228 187.744 18.7277C187.726 18.6554 187.708 18.5379 187.69 18.3753C187.69 18.0861 187.852 17.8783 188.178 17.7518C188.828 17.4627 190.229 17.1193 192.379 16.7218C194.566 16.3061 197.855 15.8905 202.246 15.4749C205.101 15.2399 207.423 15.1225 209.212 15.1225ZM196.526 17.1555V17.1826C196.526 17.3091 196.68 17.3723 196.987 17.3723H197.042C198.053 17.282 199.246 17.1736 200.62 17.0471C200.909 16.9748 201.198 16.9386 201.487 16.9386C201.559 16.9386 201.776 16.9567 202.138 16.9928C202.21 16.9748 202.246 16.9386 202.246 16.8844C202.246 16.6676 201.984 16.5591 201.46 16.5591H201.053C199.68 16.5591 198.27 16.6856 196.825 16.9386C196.626 16.9928 196.526 17.0651 196.526 17.1555ZM189.587 18.4837C189.659 18.6825 189.831 18.7909 190.102 18.809C190.572 18.809 191.051 18.7006 191.539 18.4837C191.991 18.303 192.75 18.1133 193.816 17.9145C194.719 17.7518 195.325 17.6073 195.632 17.4808V17.3452C195.578 17.2549 195.388 17.2097 195.063 17.2097H194.9C194.774 17.2097 194.331 17.3001 193.572 17.4808C192.885 17.6253 192.009 17.7428 190.943 17.8332C190.545 17.8512 190.12 17.9868 189.668 18.2398C189.614 18.3301 189.587 18.4114 189.587 18.4837ZM193.301 27.3476C193.247 27.3837 193.219 27.4379 193.219 27.5102C193.238 27.5464 193.274 27.5644 193.328 27.5644H193.355C193.409 27.5644 193.436 27.5373 193.436 27.4831V27.456C193.436 27.3837 193.391 27.3476 193.301 27.3476ZM192.298 27.7271V27.7542C192.298 27.8265 192.334 27.8626 192.406 27.8626C192.479 27.8626 192.533 27.8265 192.569 27.7542C192.551 27.6638 192.515 27.6187 192.46 27.6187H192.406C192.334 27.6187 192.298 27.6548 192.298 27.7271ZM191.322 28.0253C191.322 28.0795 191.34 28.1156 191.376 28.1337H191.43C191.539 28.1337 191.593 28.0704 191.593 27.9439V27.9168C191.575 27.8626 191.539 27.8355 191.485 27.8355C191.376 27.8355 191.322 27.8988 191.322 28.0253ZM189.587 28.6216C189.587 28.6758 189.641 28.721 189.75 28.7571C189.75 28.7571 189.759 28.7571 189.777 28.7571C189.994 28.7571 190.265 28.6397 190.59 28.4047C190.699 28.2963 190.753 28.1969 190.753 28.1066C190.699 27.9981 190.644 27.9439 190.59 27.9439C190.156 28.0704 189.822 28.2782 189.587 28.5674V28.6216ZM193.789 32.6334C193.807 32.6334 193.843 32.6515 193.897 32.6876C193.897 32.9225 193.744 33.1123 193.436 33.2568C193.346 33.2749 193.256 33.2839 193.165 33.2839H193.138C193.03 33.2839 192.976 33.2388 192.976 33.1484V33.0942C192.976 32.9135 193.201 32.7599 193.653 32.6334H193.789ZM202.951 43.7471C203.186 43.729 203.393 43.6297 203.574 43.4489V43.4218C203.357 43.4218 203.15 43.5303 202.951 43.7471ZM201.27 44.4519V44.479C201.397 44.479 201.469 44.479 201.487 44.479C201.903 44.479 202.255 44.2892 202.544 43.9098C202.544 43.9098 202.508 43.9007 202.436 43.8826C201.948 43.8826 201.559 44.0724 201.27 44.4519ZM200.918 44.6958H200.945C201.107 44.6416 201.189 44.5874 201.189 44.5332H201.162C201.071 44.5332 200.99 44.5874 200.918 44.6958Z" fill="#D8FF69"/>
<path d="M215.42 13.0624H215.447C215.935 13.0805 216.179 13.1166 216.179 13.1708C216.179 13.225 216.314 13.3515 216.585 13.5503C216.585 13.6226 216.775 13.6858 217.155 13.74C217.462 13.8665 217.805 14.0834 218.185 14.3906C218.546 14.5713 219.179 14.8605 220.082 15.258C220.082 15.2761 220.118 15.2851 220.191 15.2851C220.389 15.249 220.498 15.2309 220.516 15.2309C220.733 15.2309 220.977 15.6646 221.248 16.532C221.428 17.02 221.591 17.3001 221.736 17.3723C222.061 17.535 222.224 17.6524 222.224 17.7247C223.019 19.2969 223.85 21.3118 224.717 23.7695C224.934 24.3839 225.269 25.1248 225.72 25.9923C226.895 28.3054 228.024 30.5733 229.109 32.796V32.9587C229.109 33.0129 229.172 33.2568 229.298 33.6905C229.298 33.8532 229.398 34.1062 229.597 34.4495L229.922 35.2356L230.356 35.5609H230.464C231.675 29.7782 232.696 25.0526 233.527 21.3841C233.979 19.5409 234.385 17.6434 234.747 15.6917C234.873 15.1677 235.009 14.7791 235.153 14.5261C235.406 14.1286 235.768 13.9298 236.238 13.9298C236.744 13.9298 237.412 14.1286 238.244 14.5261C238.334 14.6165 238.488 14.8153 238.704 15.1225C238.795 15.1948 238.84 15.2309 238.84 15.2309C238.786 15.5381 238.704 16.1616 238.596 17.1013C238.415 18.1133 238.198 18.9807 237.945 19.7035C237.819 19.9926 237.72 20.3541 237.647 20.7878C237.593 21.1853 237.566 21.4293 237.566 21.5197V21.5468L237.593 21.5197C237.611 21.5377 237.62 21.5558 237.62 21.5739C237.241 23.7966 237.051 25.2784 237.051 26.0194C237.033 26.0194 236.997 26.444 236.942 27.2934C237.033 27.9801 237.132 28.3234 237.241 28.3234C237.241 28.3596 237.295 28.3776 237.403 28.3776C237.53 28.3776 237.602 28.1789 237.62 27.7813C237.566 27.0404 237.539 26.6067 237.539 26.4802V26.3989C237.539 26.0013 237.656 25.423 237.891 24.664C237.945 24.4652 237.973 24.2845 237.973 24.1219C237.954 23.4713 237.945 23.0738 237.945 22.9292C238 22.5316 238.117 21.9082 238.298 21.0588C238.316 20.6432 238.46 20.0649 238.732 19.324L238.704 19.1885V18.5921C238.704 18.5199 238.695 18.4747 238.677 18.4566H238.623L239.03 16.7218C239.192 16.0893 239.319 15.6827 239.409 15.502C239.5 15.4478 239.563 15.4207 239.599 15.4207H239.68C239.879 15.4207 240.033 15.6465 240.141 16.0983V16.1254C239.744 18.0952 239.21 21.2034 238.542 25.4501C237.349 32.7147 236.455 38.0547 235.858 41.4702C235.099 45.8795 234.44 49.2859 233.879 51.6894C233.735 52.2857 233.581 52.7465 233.419 53.0718C233.039 53.0718 232.289 52.9182 231.169 52.611C230.338 52.4303 229.75 52.2496 229.407 52.0689C228.503 51.5809 228.052 50.7316 228.052 49.5208V49.1955C228.052 48.9064 228.124 47.9306 228.268 46.268L228.295 45.5633C228.295 44.4067 228.033 43.4399 227.509 42.6628C226.335 40.5666 224.528 37.2054 222.088 32.5792C221.293 31.1154 220.48 29.5703 219.648 27.9439H219.621C219.621 28.2692 219.504 28.8023 219.269 29.5432C219.052 30.0673 218.944 30.501 218.944 30.8443C218.329 37.0427 217.877 41.2081 217.588 43.3405C217.48 44.3164 217.353 45.1115 217.209 45.7259C217.1 46.1596 216.983 46.4668 216.856 46.6475C216.766 46.7921 216.64 46.8644 216.477 46.8644C215.808 46.7921 214.724 46.1686 213.224 44.994C212.646 44.5242 212.357 44.1899 212.357 43.9911C212.176 43.3405 212.086 42.4641 212.086 41.3617V41.1449C212.086 38.9944 212.492 35.3712 213.305 30.2751C213.866 26.8416 214.336 23.5888 214.715 20.5167C214.878 18.7819 214.959 17.4085 214.959 16.3965V15.9357C214.959 15.249 214.959 14.8695 214.959 14.7972V14.7701C214.959 14.0473 215.104 13.4871 215.393 13.0895L215.42 13.0624ZM226.886 31.3052C226.994 31.7569 227.175 32.1003 227.428 32.3352C227.609 32.5159 227.762 32.6063 227.889 32.6063C227.943 32.6243 227.988 32.6334 228.024 32.6334C228.151 32.5611 228.214 32.4707 228.214 32.3623V32.3352C228.07 31.8473 227.762 31.4407 227.293 31.1154C227.202 31.0431 227.148 31.007 227.13 31.007H227.076C226.985 31.007 226.931 31.0793 226.913 31.2238C226.913 31.2419 226.904 31.269 226.886 31.3052ZM216.341 40.7925C216.341 40.8286 216.35 40.919 216.369 41.0636C216.369 41.2081 216.369 41.3527 216.369 41.4973C216.369 41.949 216.459 42.3647 216.64 42.7442H216.667C216.884 42.2562 216.992 41.8316 216.992 41.4702C216.992 41.3617 216.983 41.0816 216.965 40.6298C217.091 38.895 217.173 38.0276 217.209 38.0276C217.48 36.6542 217.615 35.7055 217.615 35.1814C217.778 34.3321 217.914 33.5189 218.022 32.7418C217.823 32.9767 217.679 33.2297 217.588 33.5008C217.516 33.6634 217.435 34.1152 217.344 34.8561C217.236 35.326 217.037 36.1934 216.748 37.4584C216.64 38.0186 216.504 39.1299 216.341 40.7925ZM228.106 33.5821C228.106 33.7809 228.178 33.8803 228.323 33.8803H228.404C228.512 33.8441 228.567 33.7899 228.567 33.7177V33.6634C228.548 33.5189 228.476 33.4466 228.35 33.4466H228.323C228.178 33.4466 228.106 33.4918 228.106 33.5821ZM228.702 35.0459V35.073C228.738 35.2176 228.801 35.2898 228.892 35.2898C229 35.2176 229.054 35.1453 229.054 35.073V35.0459C229.036 34.9194 228.982 34.8561 228.892 34.8561C228.765 34.8561 228.702 34.9194 228.702 35.0459ZM229.298 36.3741C229.298 36.4825 229.326 36.5367 229.38 36.5367C229.524 36.5367 229.606 36.4825 229.624 36.3741C229.624 36.2657 229.569 36.2115 229.461 36.2115H229.434C229.344 36.2115 229.298 36.2657 229.298 36.3741ZM232.524 52.1502C232.524 52.2405 232.614 52.2857 232.795 52.2857C232.94 52.105 233.148 51.4635 233.419 50.3611C233.69 49.1865 233.97 47.6505 234.259 45.753C234.494 44.9398 234.611 44.5332 234.611 44.5332C234.72 44.0453 234.774 43.72 234.774 43.5574C234.774 43.3224 234.684 43.205 234.503 43.205C234.322 43.205 234.214 43.3586 234.178 43.6658C233.925 44.6958 233.798 45.4187 233.798 45.8343C233.672 46.6475 233.473 47.7137 233.202 49.0329C233.039 49.7919 232.84 50.578 232.605 51.3912C232.551 51.861 232.524 52.114 232.524 52.1502Z" fill="#D8FF69"/>
<path d="M256.378 5.06592H256.785C257.309 5.06592 257.652 5.21049 257.815 5.49962C257.869 5.62612 257.896 5.80683 257.896 6.04176C257.896 6.2044 257.887 6.40318 257.869 6.6381C261.176 6.0779 263.76 5.7978 265.621 5.7978C268.784 5.7978 271.413 6.42125 273.509 7.66816C274.015 8.01151 274.413 8.74339 274.702 9.8638C274.901 10.6951 275 11.3004 275 11.6799C275 11.7884 274.81 11.8516 274.431 11.8697C273.871 11.8697 272.967 11.6348 271.72 11.1649C271.124 10.9842 270.528 10.8938 269.931 10.8938C269.19 10.8938 267.781 11.1017 265.703 11.5173C264.673 11.698 263.326 11.8878 261.664 12.0865C259.513 12.2853 257.959 12.4389 257.001 12.5474C257.146 12.5474 257.218 12.5654 257.218 12.6016C257.019 12.6377 256.92 12.6648 256.92 12.6829C255.782 18.4476 254.625 23.5978 253.45 28.1337C253.089 29.7239 252.71 31.5582 252.312 33.6363C252.276 33.6363 252.258 33.6725 252.258 33.7448C251.806 36.0217 251.445 38.1631 251.173 40.169C251.119 40.7292 251.02 41.5244 250.875 42.5544C250.442 45.7169 250.225 47.8041 250.225 48.8161V49.1142C250.225 49.9636 250.324 52.1502 250.523 55.674V56.1349C250.523 56.3156 250.505 56.4059 250.469 56.4059H250.008C249.936 56.4059 249.863 56.3517 249.791 56.2433C249.646 56.1529 249.547 56.1077 249.493 56.1077V56.0264C249.493 55.8457 249.61 55.5927 249.845 55.2674C249.918 55.1229 249.954 55.0144 249.954 54.9422V54.8337C249.954 54.6892 249.764 54.4994 249.384 54.2645L249.412 54.2374C249.375 54.0567 249.357 53.8669 249.357 53.6681V53.641C249.357 53.623 249.348 53.6049 249.33 53.5868L249.357 53.5055V53.4242C249.357 53.0447 249.457 52.5929 249.656 52.0689C249.656 52.0508 249.656 52.0237 249.656 51.9875C249.656 51.9153 249.601 51.7345 249.493 51.4454C249.384 51.0478 249.33 50.5961 249.33 50.0901V49.819C249.33 48.8974 249.421 48.1474 249.601 47.5691C249.637 47.4788 249.701 47.3884 249.791 47.2981C249.881 47.1174 249.927 46.9457 249.927 46.7831C249.927 46.6566 249.863 46.4036 249.737 46.0241C249.665 45.7349 249.628 45.491 249.628 45.2922V45.1024C249.628 44.8314 249.71 44.3977 249.872 43.8013C249.945 43.458 249.999 42.8165 250.035 41.8768C250.125 41.0997 250.243 40.3588 250.387 39.654C250.568 38.8589 250.812 37.4764 251.119 35.5067C251.246 34.7477 251.309 34.2507 251.309 34.0158C251.309 33.8893 251.237 33.8261 251.092 33.8261C250.911 33.8622 250.821 33.9435 250.821 34.07C250.64 34.5218 250.469 35.1091 250.306 35.832C250.216 36.1572 250.152 36.6181 250.116 37.2144C249.954 38.4252 249.719 39.8709 249.412 41.5515C249.213 42.6177 249.041 43.9007 248.897 45.4006C248.553 47.2439 248.382 48.8432 248.382 50.1985C248.382 50.7045 248.409 51.1563 248.463 51.5538L248.436 51.608C248.436 52.4755 248.436 53.0357 248.436 53.2887C248.436 54.2103 248.463 55.1319 248.517 56.0535H248.463C248.282 55.9993 247.993 55.8457 247.595 55.5927C246.854 55.0687 246.385 54.5356 246.186 53.9934C245.644 52.6923 245.373 50.5328 245.373 47.5149C245.373 44.8766 245.571 42.0123 245.969 38.9221C246.186 37.4945 246.493 35.7868 246.891 33.799C246.909 33.799 246.918 33.7448 246.918 33.6363C246.918 33.6363 246.909 33.6273 246.891 33.6092C248.138 27.194 249.619 20.589 251.336 13.7943C248.246 14.5894 245.427 15.4568 242.879 16.3965C240.981 17.0832 239.879 17.4266 239.572 17.4266C238.921 17.4266 238.37 17.1465 237.918 16.5862C237.611 16.1706 237.458 15.773 237.458 15.3936C237.421 14.9237 237.105 14.2641 236.509 13.4148C236.473 13.3786 236.455 13.3334 236.455 13.2792V13.225C236.455 12.7913 237.846 12.1498 240.629 11.3004C242.364 10.7402 243.882 10.1981 245.183 9.67405C246.954 9.05963 249.195 8.44521 251.905 7.8308C251.905 7.81273 251.905 7.80369 251.905 7.80369C251.905 7.78562 251.905 7.77658 251.905 7.77658C251.905 7.48745 251.878 6.97242 251.824 6.2315C252.71 5.88815 253.604 5.58998 254.508 5.33698C255.321 5.15627 255.944 5.06592 256.378 5.06592ZM248.734 9.70116C249.186 9.62887 249.412 9.53852 249.412 9.43009C249.375 9.28552 249.312 9.21324 249.222 9.21324C249.113 9.21324 248.951 9.37588 248.734 9.70116ZM239.274 13.2521C239.454 13.3244 239.635 13.3606 239.816 13.3606C240.159 13.3606 240.584 13.2612 241.09 13.0624C242.987 12.466 244.659 11.8064 246.105 11.0836C246.954 10.686 247.776 10.2433 248.571 9.75537H248.436C247.785 9.75537 247.117 9.93608 246.43 10.2975C246.177 10.424 245.544 10.6499 244.532 10.9752C243.159 11.445 241.569 12.0504 239.762 12.7913C239.689 12.8275 239.527 12.9811 239.274 13.2521ZM238.488 13.4148V13.4419C238.488 13.478 238.533 13.4961 238.623 13.4961C238.786 13.4961 238.957 13.4238 239.138 13.2792C239.138 13.2612 239.03 13.2341 238.813 13.1979H238.732C238.569 13.216 238.488 13.2883 238.488 13.4148ZM253.559 23.7695C253.324 24.2213 253.206 24.646 253.206 25.0435V25.2604H253.234C253.505 24.6821 253.64 24.2394 253.64 23.9321V23.8779C253.64 23.8418 253.613 23.8057 253.559 23.7695ZM253.152 25.423C252.719 26.1278 252.502 26.8687 252.502 27.6458V27.9439H252.529C252.963 27.2934 253.179 26.4892 253.179 25.5314C253.179 25.4772 253.179 25.4411 253.179 25.423H253.152ZM252.149 29.0824C251.987 29.4077 251.905 29.7239 251.905 30.0311C251.923 30.1757 251.932 30.2841 251.932 30.3564C252.113 30.0673 252.204 29.7872 252.204 29.5161V29.3535C252.204 29.2812 252.194 29.1908 252.176 29.0824H252.149ZM251.689 31.1696C251.399 31.7298 251.255 32.2539 251.255 32.7418V33.04H251.282C251.571 32.4436 251.716 31.8563 251.716 31.2781C251.698 31.2419 251.689 31.2058 251.689 31.1696Z" fill="#D8FF69"/>
</svg>
